<svg xmlns="http://www.w3.org/2000/svg" xmlns:xlink="http://www.w3.org/1999/xlink" width="500" zoomAndPan="magnify" viewBox="0 0 375 374.999991" height="500" preserveAspectRatio="xMidYMid meet" version="1.0"><defs><g/><clipPath id="id1"><path d="M 137.027344 183.160156 L 235.195312 183.160156 L 235.195312 198.542969 L 137.027344 198.542969 Z M 137.027344 183.160156 " clip-rule="nonzero"/></clipPath><clipPath id="id2"><path d="M 140 155.054688 L 233 155.054688 L 233 191 L 140 191 Z M 140 155.054688 " clip-rule="nonzero"/></clipPath></defs><g fill="#141515" fill-opacity="1"><g transform="translate(115.810032, 172.44127)"><g><path d="M -3.121094 -4.621094 L -3.589844 -4.859375 C -5.421875 -5.804688 -6.292969 -6.621094 -5.664062 -7.84375 L -5.609375 -7.949219 C -5.097656 -8.949219 -4.230469 -8.84375 -2.972656 -8.195312 L -1.996094 -10.101562 L -2.417969 -10.316406 C -4.707031 -11.496094 -6.191406 -10.863281 -7.308594 -8.6875 C -8.535156 -6.304688 -7.75 -4.566406 -4.578125 -2.933594 L -4.109375 -2.691406 C -0.9375 -1.0625 0.933594 -1.4375 2.15625 -3.820312 C 3.277344 -5.992188 2.925781 -7.570312 0.671875 -8.730469 L 0.566406 -8.78125 L -0.414062 -6.878906 C 0.574219 -6.371094 1.046875 -5.699219 0.566406 -4.773438 L 0.515625 -4.667969 C -0.113281 -3.445312 -1.289062 -3.675781 -3.121094 -4.621094 Z M -3.121094 -4.621094 "/></g></g></g><g fill="#141515" fill-opacity="1"><g transform="translate(122.36023, 160.630198)"><g><path d="M -6.59375 -8.414062 L 0.109375 -0.148438 L 1.492188 -1.984375 L 0.0117188 -3.707031 L 1.527344 -5.726562 L 3.605469 -4.792969 L 4.976562 -6.617188 L -4.824219 -10.769531 Z M -3.742188 -8.101562 L -0.203125 -6.5 L -1.21875 -5.148438 Z M -3.742188 -8.101562 "/></g></g></g><g fill="#141515" fill-opacity="1"><g transform="translate(130.744604, 150.186003)"><g><path d="M -0.453125 -4.664062 L 0.34375 -5.417969 L 3.910156 -3.707031 L 5.589844 -5.296875 L 1.65625 -7.082031 C 2.066406 -7.996094 2.011719 -9.074219 0.867188 -10.28125 L 0.683594 -10.472656 C -1.195312 -12.457031 -2.875 -11.464844 -4.09375 -10.3125 L -6.546875 -7.988281 L 0.535156 -0.507812 L 2.089844 -1.980469 Z M -1.726562 -6.007812 L -3.722656 -8.117188 L -2.753906 -9.035156 C -2.332031 -9.433594 -1.640625 -9.777344 -0.84375 -8.933594 L -0.75 -8.839844 C 0.046875 -7.996094 -0.335938 -7.324219 -0.757812 -6.925781 Z M -1.726562 -6.007812 "/></g></g></g><g fill="#141515" fill-opacity="1"><g transform="translate(140.572584, 141.434824)"><g><path d="M 0.777344 -5.710938 C 2.128906 -6.378906 2.671875 -6.25 3.085938 -5.636719 L 3.121094 -5.582031 C 3.507812 -5.011719 3.394531 -4.300781 2.574219 -3.75 L 2.472656 -3.683594 C 1.652344 -3.128906 0.910156 -3.285156 0.191406 -4.359375 L -1.585938 -3.167969 L -1.519531 -3.066406 C -0.136719 -1.007812 1.53125 -0.824219 3.550781 -2.175781 C 5.554688 -3.527344 6 -5.207031 4.894531 -6.851562 L 4.820312 -6.960938 C 3.753906 -8.550781 2.382812 -8.554688 0.351562 -7.554688 C -1.011719 -6.878906 -1.484375 -7.039062 -1.902344 -7.664062 L -1.941406 -7.71875 C -2.308594 -8.265625 -2.15625 -8.941406 -1.445312 -9.421875 L -1.34375 -9.488281 C -0.445312 -10.089844 0.238281 -9.804688 0.992188 -8.683594 L 2.765625 -9.878906 L 2.613281 -10.109375 C 1.265625 -12.113281 -0.28125 -12.429688 -2.386719 -11.015625 C -4.339844 -9.703125 -4.730469 -7.992188 -3.695312 -6.445312 L -3.613281 -6.324219 C -2.574219 -4.777344 -1.253906 -4.710938 0.777344 -5.710938 Z M 0.777344 -5.710938 "/></g></g></g><g fill="#141515" fill-opacity="1"><g transform="translate(158.901805, 131.143043)"><g><path d="M 0.984375 -5.484375 L 0.816406 -5.988281 C 0.160156 -7.941406 0.109375 -9.132812 1.410156 -9.570312 L 1.523438 -9.609375 C 2.585938 -9.96875 3.136719 -9.289062 3.585938 -7.949219 L 5.613281 -8.628906 L 5.460938 -9.082031 C 4.640625 -11.523438 3.136719 -12.101562 0.820312 -11.324219 C -1.71875 -10.472656 -2.371094 -8.675781 -1.234375 -5.296875 L -1.066406 -4.796875 C 0.0664062 -1.417969 1.667969 -0.378906 4.210938 -1.234375 C 6.527344 -2.011719 7.375 -3.382812 6.570312 -5.789062 L 6.53125 -5.898438 L 4.503906 -5.21875 C 4.855469 -4.167969 4.722656 -3.355469 3.734375 -3.023438 L 3.621094 -2.988281 C 2.320312 -2.550781 1.640625 -3.53125 0.984375 -5.484375 Z M 0.984375 -5.484375 "/></g></g></g><g fill="#141515" fill-opacity="1"><g transform="translate(171.823052, 127.234997)"><g><path d="M 4.414062 -0.5 C 7.0625 -0.90625 8.078125 -2.570312 7.539062 -6.097656 L 7.457031 -6.617188 C 6.917969 -10.144531 5.453125 -11.429688 2.804688 -11.023438 C 0.164062 -10.621094 -0.847656 -8.957031 -0.308594 -5.429688 L -0.230469 -4.910156 C 0.308594 -1.382812 1.777344 -0.0976562 4.414062 -0.5 Z M 4.082031 -2.320312 C 2.773438 -2.121094 2.222656 -3.199219 1.910156 -5.234375 L 1.832031 -5.757812 C 1.519531 -7.792969 1.726562 -8.988281 3.03125 -9.1875 L 3.148438 -9.207031 C 4.453125 -9.40625 4.992188 -8.324219 5.304688 -6.289062 L 5.382812 -5.765625 C 5.695312 -3.730469 5.503906 -2.539062 4.199219 -2.339844 Z M 4.082031 -2.320312 "/></g></g></g><g fill="#141515" fill-opacity="1"><g transform="translate(185.55882, 125.621193)"><g><path d="M 6.683594 0.0703125 L 6.703125 -1.78125 L 2.898438 -1.820312 L 2.984375 -10.273438 L 0.84375 -10.292969 L 0.738281 0.0078125 Z M 6.683594 0.0703125 "/></g></g></g><g fill="#141515" fill-opacity="1"><g transform="translate(197.414447, 126.115705)"><g><path d="M 6.597656 1.066406 L 6.890625 -0.761719 L 3.136719 -1.367188 L 4.484375 -9.710938 L 2.371094 -10.050781 L 0.730469 0.117188 Z M 6.597656 1.066406 "/></g></g></g><g fill="#141515" fill-opacity="1"><g transform="translate(209.054628, 128.357186)"><g><path d="M 3.886719 -9.570312 L 0.703125 0.230469 L 6.695312 2.175781 L 7.265625 0.417969 L 3.308594 -0.867188 L 4.078125 -3.230469 L 7.40625 -2.148438 L 7.976562 -3.90625 L 4.648438 -4.988281 L 5.351562 -7.148438 L 9.308594 -5.863281 L 9.878906 -7.621094 Z M 3.886719 -9.570312 "/></g></g></g><g fill="#141515" fill-opacity="1"><g transform="translate(220.842443, 132.604729)"><g><path d="M 8.0625 -5.378906 L 10.191406 -4.296875 L 11.03125 -5.945312 L 4.875 -9.078125 L 4.035156 -7.429688 L 6.15625 -6.351562 L 2.320312 1.179688 L 4.226562 2.152344 Z M 8.0625 -5.378906 "/></g></g></g><g fill="#141515" fill-opacity="1"><g transform="translate(231.640438, 138.4992)"><g><path d="M 5.054688 -2.347656 L 5.367188 -2.773438 C 6.589844 -4.433594 7.535156 -5.164062 8.640625 -4.351562 L 8.738281 -4.28125 C 9.640625 -3.613281 9.402344 -2.773438 8.566406 -1.636719 L 10.289062 -0.367188 L 10.570312 -0.753906 C 12.097656 -2.828125 11.707031 -4.390625 9.738281 -5.839844 C 7.578125 -7.429688 5.734375 -6.929688 3.621094 -4.058594 L 3.308594 -3.632812 C 1.199219 -0.757812 1.269531 1.148438 3.429688 2.734375 C 5.398438 4.183594 7.011719 4.089844 8.511719 2.046875 L 8.582031 1.949219 L 6.859375 0.683594 C 6.203125 1.578125 5.460938 1.933594 4.621094 1.316406 L 4.527344 1.246094 C 3.417969 0.433594 3.835938 -0.6875 5.054688 -2.347656 Z M 5.054688 -2.347656 "/></g></g></g><g fill="#141515" fill-opacity="1"><g transform="translate(242.269742, 146.968231)"><g><path d="M 9.3125 -5.296875 L 7.785156 -6.792969 L 0.574219 0.5625 L 2.105469 2.0625 Z M 9.3125 -5.296875 "/></g></g></g><g fill="#141515" fill-opacity="1"><g transform="translate(248.400163, 153.216157)"><g><path d="M 2.558594 3.628906 C 4.1875 5.761719 6.132812 5.851562 8.96875 3.683594 L 9.386719 3.363281 C 12.21875 1.199219 12.644531 -0.703125 11.015625 -2.835938 C 9.394531 -4.953125 7.449219 -5.042969 4.613281 -2.878906 L 4.195312 -2.558594 C 1.363281 -0.394531 0.9375 1.511719 2.558594 3.628906 Z M 3.996094 2.464844 C 3.195312 1.414062 3.875 0.414062 5.511719 -0.835938 L 5.929688 -1.160156 C 7.566406 -2.410156 8.710938 -2.804688 9.515625 -1.753906 L 9.585938 -1.660156 C 10.390625 -0.609375 9.699219 0.382812 8.0625 1.632812 L 7.644531 1.953125 C 6.007812 3.203125 4.871094 3.609375 4.066406 2.558594 Z M 3.996094 2.464844 "/></g></g></g><g fill="#141515" fill-opacity="1"><g transform="translate(256.435937, 164.429185)"><g><path d="M 12.957031 2.617188 L 12.019531 0.8125 L 8.183594 2.796875 L 6.375 3.808594 L 10.527344 -2.074219 L 9.488281 -4.078125 L 0.339844 0.65625 L 1.269531 2.453125 L 5.105469 0.464844 L 6.914062 -0.546875 L 2.769531 5.347656 L 3.808594 7.355469 Z M 12.957031 2.617188 "/></g></g></g><path fill="#ffffff" d="M 140.558594 182.1875 L 138.226562 182.8125 C 138.226562 182.8125 138.847656 187.175781 139.671875 187.839844 C 140.496094 188.511719 145.722656 189.554688 145.707031 189.898438 C 145.695312 190.238281 149.425781 189.898438 149.425781 189.898438 C 149.425781 189.898438 150.222656 192.785156 150.917969 193.4375 C 151.621094 194.089844 154.996094 194.925781 154.996094 194.925781 L 161.269531 194.574219 L 163.667969 191.386719 C 163.667969 191.386719 166.945312 191.507812 168.320312 191.300781 C 169.703125 191.097656 171.507812 189.949219 171.507812 189.949219 L 187.972656 190.507812 C 187.972656 190.507812 187.941406 194.886719 190.230469 195.832031 C 192.511719 196.773438 201.128906 196.214844 201.128906 196.214844 L 203.554688 191.023438 L 203.890625 188.378906 L 204.550781 185.792969 L 217.953125 182.449219 L 219.140625 182.039062 C 219.140625 182.039062 220.132812 186.125 220.59375 186.90625 C 221.050781 187.683594 224.40625 187.738281 224.660156 187.738281 C 224.921875 187.738281 226.679688 186.507812 227.273438 184.554688 C 227.859375 182.601562 228.519531 178.601562 228.519531 178.601562 L 230.441406 173.175781 L 229.472656 169.796875 L 224.609375 168.074219 C 224.609375 168.074219 189.800781 169.558594 189.777344 168.792969 C 189.753906 168.023438 150.1875 173.035156 150.1875 173.035156 L 140.558594 182.1875 " fill-opacity="1" fill-rule="evenodd"/><path fill="#141515" d="M 198.597656 164.519531 C 197.738281 163.957031 196.542969 163.605469 195.21875 163.605469 C 193.890625 163.605469 192.695312 163.957031 191.835938 164.519531 C 191.03125 165.050781 190.53125 165.773438 190.53125 166.546875 C 190.53125 167.324219 191.03125 168.046875 191.835938 168.578125 C 192.695312 169.136719 193.890625 169.492188 195.21875 169.492188 C 196.542969 169.492188 197.738281 169.136719 198.597656 168.578125 C 199.40625 168.046875 199.902344 167.324219 199.902344 166.546875 C 199.902344 165.773438 199.40625 165.050781 198.597656 164.519531 Z M 195.21875 162.785156 C 196.710938 162.785156 198.0625 163.183594 199.054688 163.835938 C 200.089844 164.519531 200.734375 165.476562 200.734375 166.546875 C 200.734375 167.621094 200.089844 168.578125 199.054688 169.257812 C 198.0625 169.910156 196.710938 170.3125 195.21875 170.3125 C 193.730469 170.3125 192.371094 169.910156 191.382812 169.257812 C 190.34375 168.578125 189.703125 167.621094 189.703125 166.546875 C 189.703125 165.476562 190.34375 164.519531 191.382812 163.835938 C 192.371094 163.183594 193.730469 162.785156 195.21875 162.785156 " fill-opacity="1" fill-rule="nonzero"/><path fill="#141515" d="M 192.320312 163.84375 L 195.171875 166.800781 L 198.882812 164.070312 L 199.207031 164.507812 L 195.308594 167.382812 L 195.109375 167.527344 L 194.949219 167.355469 L 191.917969 164.226562 L 192.320312 163.84375 " fill-opacity="1" fill-rule="nonzero"/><path fill="#141515" d="M 189.585938 157.660156 C 189.585938 157.660156 189.417969 158.484375 189.242188 158.554688 C 189.074219 158.628906 187.433594 158.375 187.1875 158.726562 C 186.945312 159.078125 186.871094 159.710938 187.03125 159.742188 C 187.1875 159.777344 191.382812 159.921875 191.617188 159.800781 C 191.847656 159.6875 192.015625 158.785156 191.761719 158.664062 C 191.507812 158.542969 189.632812 158.640625 189.660156 158.554688 C 189.683594 158.472656 189.863281 157.960938 189.863281 157.960938 L 189.585938 157.660156 " fill-opacity="1" fill-rule="evenodd"/><path fill="#141515" d="M 189.722656 184.757812 C 182.546875 185.082031 175.53125 184.78125 168.390625 184.914062 C 168.390625 184.914062 168.652344 185.652344 168.984375 185.738281 C 169.320312 185.824219 186.429688 185.785156 187.078125 185.757812 C 187.734375 185.726562 188.738281 185.46875 188.910156 185.394531 C 189.085938 185.324219 189.722656 184.757812 189.722656 184.757812 " fill-opacity="1" fill-rule="evenodd"/><path fill="#141515" d="M 153.453125 184.097656 C 153.453125 184.097656 142.515625 183.578125 141.191406 183.378906 C 139.875 183.175781 139.4375 182.992188 139.4375 183.078125 C 139.4375 183.164062 140.089844 183.898438 140.746094 184.011719 C 141.402344 184.128906 151.78125 184.683594 151.910156 184.683594 C 152.042969 184.683594 153.089844 184.683594 153.089844 184.683594 L 153.453125 184.097656 " fill-opacity="1" fill-rule="evenodd"/><g clip-path="url(#id1)"><path fill="#141515" d="M 219.058594 185.292969 L 203.253906 188.511719 C 202.972656 192.242188 201.882812 194.222656 200.066406 195.351562 C 198.546875 196.300781 192.441406 196.109375 190.851562 195.84375 C 189.261719 195.578125 188.84375 193.949219 188.28125 193.042969 C 187.710938 192.136719 187.996094 192.546875 187.996094 192.546875 C 179.332031 192.476562 172.007812 192.785156 164.363281 192.507812 C 163.667969 192.484375 161.269531 193.910156 160.464844 193.878906 C 159.605469 193.847656 158.816406 193.8125 158.085938 193.78125 C 158.484375 193.960938 158.824219 193.96875 159.03125 193.933594 C 156.796875 194.511719 152.027344 194.203125 150.652344 193.972656 C 149.960938 193.859375 149.425781 193.648438 148.984375 193.355469 C 131.304688 193.0625 135.605469 195.574219 146.59375 196.570312 C 162.53125 198.019531 192.953125 198.507812 194.273438 198.535156 C 198.816406 198.644531 203.367188 197.28125 203.472656 197.246094 C 203.804688 197.125 221.71875 190.375 228.089844 188.105469 C 236.015625 185.289062 239.421875 181.164062 226.976562 184.636719 C 226.976562 184.636719 226.511719 186.222656 225.617188 186.652344 C 224.71875 187.085938 222.605469 187.085938 221.496094 186.953125 C 220.382812 186.820312 219.605469 185.546875 219.605469 185.546875 L 219.058594 185.292969 " fill-opacity="1" fill-rule="evenodd"/></g><path fill="#141515" d="M 140.621094 181.246094 C 141.347656 181.132812 141.5625 181.433594 141.425781 180.554688 C 141.097656 178.53125 141.082031 176.539062 141.644531 174.5625 C 141.210938 174.4375 141.179688 174.4375 141.035156 174.371094 C 140.6875 176.703125 140.761719 178.746094 140.621094 181.246094 Z M 145.183594 170.777344 C 142.121094 171.492188 141.488281 171.570312 141.070312 174.167969 C 142.554688 174.230469 141.859375 174.316406 141.800781 176.847656 C 141.777344 178.117188 141.761719 179.238281 141.832031 180.503906 C 141.894531 181.59375 141.441406 181.59375 140.613281 181.410156 C 140.613281 181.433594 140.613281 181.453125 140.613281 181.484375 C 140.558594 182.332031 140.589844 182.039062 140.421875 182.882812 C 140.160156 181.65625 139.890625 178.378906 139.886719 175.6875 C 139.878906 171.085938 140.292969 170.277344 145.214844 169.15625 C 153.441406 167.289062 168.304688 165.539062 169.621094 165.941406 C 166.226562 166.511719 158.324219 168.40625 155.3125 169.050781 C 153.023438 169.542969 147.332031 170.28125 145.183594 170.777344 " fill-opacity="1" fill-rule="evenodd"/><path fill="#141515" d="M 220.359375 186.132812 C 220.570312 186.132812 220.785156 186.125 221 186.121094 C 220.488281 185.726562 220.085938 184.554688 219.796875 182.871094 C 219.703125 182.90625 219.75 182.886719 219.65625 182.921875 C 219.6875 184.070312 219.792969 185.171875 220.359375 186.132812 Z M 222.1875 186.199219 C 221.675781 185.808594 221.289062 184.636719 221.011719 182.957031 C 220.917969 182.984375 220.964844 182.96875 220.871094 183.003906 C 220.894531 184.152344 220.992188 185.253906 221.550781 186.21875 C 221.757812 186.210938 221.972656 186.207031 222.1875 186.199219 Z M 222.964844 186.289062 C 223.226562 186.28125 223.488281 186.277344 223.75 186.277344 C 223.132812 185.785156 222.664062 184.355469 222.351562 182.285156 C 222.234375 182.320312 222.292969 182.304688 222.175781 182.34375 C 222.1875 183.757812 222.292969 185.109375 222.964844 186.289062 Z M 204.640625 185.253906 C 208.835938 183.972656 221.816406 181.546875 223.027344 178.855469 C 223.558594 177.625 225.199219 173.542969 226.261719 172.902344 C 226.261719 172.898438 226.261719 172.898438 226.261719 172.898438 C 226.449219 172.71875 226.667969 172.648438 226.894531 172.679688 C 227.632812 172.585938 228.316406 173.054688 228.3125 173.84375 C 228.296875 175.6875 227.691406 177.382812 226.863281 179.019531 C 226.863281 178.996094 226.859375 178.972656 226.859375 178.949219 C 226.863281 178.996094 226.863281 179.023438 226.863281 179.023438 C 226.863281 179.019531 226.863281 179.019531 226.863281 179.019531 C 227.011719 180.3125 226.8125 185.554688 225.296875 185.433594 C 224.707031 185.433594 224.265625 183.394531 224.316406 180.878906 C 224.339844 179.804688 224.445312 178.808594 224.613281 178.03125 C 224.53125 178.671875 224.480469 179.40625 224.464844 180.191406 C 224.441406 181.886719 224.597656 183.371094 224.863281 184.152344 C 225.398438 183.535156 225.449219 177.847656 225.0625 176.800781 C 225.089844 176.785156 225.113281 176.773438 225.140625 176.773438 C 226.546875 176.402344 226.1875 185.3125 224.992188 184.289062 C 224.957031 184.289062 224.925781 184.277344 224.898438 184.25 C 225.015625 184.5625 225.152344 184.738281 225.304688 184.738281 C 226.347656 184.738281 226.855469 177.359375 225.332031 175.558594 C 224.910156 176.617188 224.492188 177.804688 224.132812 178.601562 C 223.867188 179.191406 223.574219 179.929688 223.152344 180.484375 C 223.175781 180.867188 223.214844 181.449219 223.308594 182.332031 C 223.550781 184.675781 224.109375 186.363281 224.824219 186.765625 C 224.921875 186.820312 225.007812 186.859375 225.078125 186.886719 C 224.109375 187.164062 221.765625 187.066406 220.820312 186.953125 C 220.660156 186.933594 220.511719 186.894531 220.371094 186.835938 C 220.09375 186.589844 219.796875 186.257812 219.570312 185.835938 C 219.078125 184.925781 218.890625 183.199219 218.832031 182.535156 C 216.566406 183.589844 206.292969 186.476562 203.90625 185.976562 C 204.4375 185.738281 203.929688 185.46875 204.640625 185.253906 " fill-opacity="1" fill-rule="evenodd"/><path fill="#141515" d="M 140.257812 187.585938 C 140.925781 188.644531 150.25 188.558594 151.90625 188.695312 C 152.1875 188.71875 152.363281 188.734375 152.492188 188.742188 C 152.078125 187.367188 151.984375 186.773438 152.03125 185.480469 C 152.042969 185.167969 152.039062 185.09375 152.078125 184.894531 C 150.96875 184.964844 141.210938 184.585938 140.320312 184.203125 C 139.925781 184.03125 139.496094 183.730469 139.234375 183.355469 C 139.0625 183.320312 139.21875 183.324219 138.929688 183.324219 C 139.078125 184.488281 140.023438 187.222656 140.257812 187.585938 Z M 151.429688 193.089844 C 151.707031 193.089844 151.984375 193.082031 152.257812 193.078125 C 151.804688 192.730469 151.242188 191.894531 150.84375 190.726562 L 150.382812 190.695312 C 150.59375 191.535156 150.980469 192.363281 151.429688 193.089844 Z M 153.703125 193.1875 C 153.980469 193.183594 154.261719 193.175781 154.539062 193.171875 C 154.097656 192.835938 153.699219 192.039062 153.355469 190.929688 L 152.875 190.890625 C 153.023438 191.699219 153.28125 192.488281 153.703125 193.1875 Z M 155.949219 193.261719 C 156.292969 193.257812 156.632812 193.25 156.976562 193.246094 C 156.578125 192.9375 156.207031 192.34375 155.875 191.511719 C 155.695312 191.496094 155.515625 191.476562 155.339844 191.460938 C 155.28125 191.457031 155.222656 191.449219 155.167969 191.445312 C 155.347656 192.074219 155.601562 192.6875 155.949219 193.261719 Z M 167.734375 190.375 L 167.730469 190.375 C 167.769531 190.226562 167.765625 190.027344 167.753906 189.886719 C 167.699219 189.066406 167.566406 185.183594 167.039062 185.042969 C 164.542969 185.15625 155.339844 184.941406 153.664062 184.601562 C 153.191406 185.570312 153.894531 188.597656 154.398438 189.699219 C 155.695312 189.9375 166.832031 190.554688 167.734375 190.375 Z M 168.367188 190.984375 C 168.367188 191 168.367188 191.011719 168.367188 191.023438 C 168.355469 191.132812 168.34375 191.226562 168.320312 191.300781 C 169.023438 191.183594 169.09375 190.890625 169.128906 190.773438 C 169.167969 189.660156 169.078125 185.011719 167.574219 184.855469 C 167.609375 184.917969 167.632812 184.996094 167.65625 185.082031 C 168.128906 185.902344 168.535156 190.15625 168.367188 190.984375 Z M 190.78125 195.566406 C 191.058594 195.5625 191.339844 195.554688 191.617188 195.554688 C 190.875 195.03125 190.136719 193.503906 189.453125 191.300781 C 189.339844 191.347656 189.398438 191.324219 189.285156 191.363281 C 189.527344 192.871094 189.871094 194.308594 190.78125 195.566406 Z M 193.0625 195.660156 C 193.339844 195.660156 193.617188 195.652344 193.890625 195.648438 C 193.171875 195.128906 192.488281 193.597656 191.871094 191.398438 C 191.753906 191.4375 191.8125 191.414062 191.699219 191.460938 C 191.894531 192.960938 192.191406 194.398438 193.0625 195.660156 Z M 195.308594 195.738281 C 195.648438 195.734375 195.992188 195.730469 196.328125 195.71875 C 195.445312 195.082031 194.617188 193.207031 193.878906 190.503906 C 193.734375 190.554688 193.804688 190.527344 193.664062 190.578125 C 193.898438 192.425781 194.246094 194.191406 195.308594 195.738281 Z M 138.058594 182.523438 C 140.535156 182.527344 139.191406 182.957031 140.621094 183.570312 C 141.875 184.097656 149.984375 184.371094 152.109375 184.40625 C 152.335938 183.660156 153.699219 183.921875 154.515625 183.984375 C 156.679688 184.140625 167.375 184.273438 168.253906 184.574219 C 169.296875 184.929688 168.300781 185.570312 169.570312 185.402344 C 175.128906 185.335938 182.300781 185.449219 186.722656 185.472656 C 188.164062 185.480469 189.097656 185.09375 190.363281 184.441406 C 190.738281 184.242188 191.28125 184.636719 191.371094 185.035156 C 190.507812 184.289062 190.574219 184.707031 189.671875 185.191406 C 188.765625 185.675781 187.734375 186 186.71875 186.035156 C 184.175781 186.027344 170.957031 186.351562 169.859375 186.023438 C 170.132812 187.078125 170.515625 187.839844 170.589844 189.046875 L 188.320312 189.082031 C 189.132812 189.078125 190.496094 188.945312 190.71875 187.894531 C 191.214844 186.472656 191.363281 186.640625 191.761719 185.261719 C 191.832031 186.125 191.355469 188.503906 191.058594 189.371094 C 191.019531 189.648438 190.921875 189.886719 190.785156 190.085938 L 190.785156 190.082031 C 192.128906 189.777344 192.5 189.480469 193.601562 188.65625 C 194.269531 186.734375 195.625 183.167969 196.109375 181.175781 C 196.113281 181.132812 196.53125 179.214844 196.585938 179.042969 C 197.460938 176.292969 203.007812 175.066406 204.132812 177.203125 C 204.988281 178.828125 203.171875 183.902344 202.585938 186.0625 L 202.507812 186.097656 C 202.515625 187.863281 201.71875 194.589844 199.265625 194.589844 C 197.769531 194.589844 196.664062 191.039062 196.792969 186.652344 C 196.851562 184.773438 197.125 183.042969 197.535156 181.6875 C 197.332031 182.804688 197.207031 184.082031 197.171875 185.445312 C 197.09375 188.414062 197.5 190.992188 198.164062 192.363281 C 199.566406 191.328125 199.789062 181.421875 198.660156 179.539062 C 198.730469 179.503906 199.269531 179.273438 199.339844 179.273438 C 201.867188 180.238281 201.324219 193.59375 198.644531 192.828125 C 198.5625 192.828125 198.324219 192.582031 198.25 192.535156 C 198.550781 193.078125 198.894531 193.382812 199.265625 193.382812 C 200.507812 193.382812 201.609375 189.941406 201.75 185.652344 C 201.726562 183.332031 201.71875 179.546875 200.128906 177.582031 C 199.625 177.757812 199.183594 177.96875 198.917969 178.140625 C 197.582031 179.019531 197.621094 179.988281 197.175781 181.507812 C 196.933594 182.332031 195.898438 185.785156 195.1875 187.683594 C 195.199219 189.230469 195.394531 191.769531 196.390625 193.613281 C 197.558594 195.769531 198.738281 195.878906 199.238281 195.808594 C 196.996094 196.382812 192.226562 196.207031 190.851562 195.976562 C 190.074219 195.851562 189.324219 195.519531 188.703125 195.109375 C 187.582031 193.503906 186.789062 191.144531 186.789062 191.144531 C 181.164062 191.183594 175.316406 191.058594 169.703125 191.097656 C 169.699219 191.097656 169.664062 191.097656 169.617188 191.105469 C 169.519531 191.421875 168.984375 191.75 168.195312 191.890625 C 165.0625 192.441406 158.121094 191.699219 157.539062 191.652344 C 157.570312 191.710938 157.597656 191.769531 157.628906 191.824219 C 158.792969 193.972656 159.964844 194.089844 160.464844 194.015625 C 158.226562 194.585938 153.453125 194.410156 152.078125 194.1875 C 149.675781 193.789062 149.199219 192.378906 148.421875 190.320312 C 146.878906 190.289062 139.96875 190.15625 139.101562 189.117188 C 138.644531 188.5625 138.105469 186.121094 137.949219 185.300781 C 137.855469 184.851562 137.203125 182.515625 138.058594 182.523438 " fill-opacity="1" fill-rule="evenodd"/><g clip-path="url(#id2)"><path fill="#141515" d="M 170.636719 164.808594 C 172.390625 162.144531 174.9375 157.476562 177.996094 156.503906 C 182.570312 155.046875 197.21875 155.332031 200.222656 155.394531 C 207.6875 155.558594 213.628906 156.058594 217.714844 158.640625 C 220.921875 160.671875 222.320312 165.125 225.402344 165.949219 C 226.71875 166.105469 228.027344 166.164062 229.335938 166.367188 L 229.382812 166.378906 L 229.425781 166.414062 C 229.429688 166.425781 232.417969 169.179688 232.5 169.65625 C 232.597656 170.234375 229.128906 179.023438 228.390625 179.652344 L 228.152344 179.46875 L 227.921875 179.285156 C 228.09375 179.128906 228.351562 178.652344 228.648438 177.996094 C 228.894531 177.164062 229.144531 176.183594 229.117188 175.628906 C 229.058594 174.550781 229.832031 172.875 229.117188 172.117188 C 228.402344 171.359375 226.484375 171.269531 225.363281 171.984375 C 224.242188 172.695312 223.976562 173.984375 223.480469 175.230469 C 222.996094 176.476562 221.9375 179.9375 221.9375 179.9375 L 220.355469 181.28125 L 203.90625 185.976562 C 203.90625 185.976562 205.464844 180.4375 205.464844 178.300781 C 205.464844 176.164062 205.328125 175.722656 203.855469 175.230469 C 202.375 174.738281 198.933594 174.917969 197.59375 175.898438 C 196.253906 176.875 195.9375 177.632812 195.9375 178.210938 C 195.9375 178.785156 193.839844 189.375 193.839844 189.375 L 190.304688 190.40625 C 190.304688 190.40625 191.730469 186.050781 191.628906 185.726562 C 191.523438 185.402344 191.269531 184.804688 190.53125 184.652344 C 189.792969 184.503906 189.332031 185.09375 189.332031 185.09375 L 187.386719 185.445312 L 169.175781 185.21875 L 168.390625 184.914062 L 153.664062 184.601562 L 142.351562 184.140625 L 140.621094 183.570312 C 140.621094 183.570312 140.703125 179.105469 140.78125 177.058594 C 140.855469 175.015625 140.914062 172.117188 140.914062 172.117188 C 140.914062 172.117188 147.550781 169.402344 147.910156 169.3125 C 148.265625 169.222656 164.984375 166.136719 164.984375 166.136719 L 169.070312 166.039062 L 169.800781 165.957031 C 169.953125 165.75 170.253906 165.339844 170.636719 164.808594 Z M 175.148438 164.738281 C 178.355469 164.363281 189.277344 164.316406 190.886719 164.542969 C 191.292969 164.601562 191.59375 164.679688 191.835938 164.765625 L 195.132812 165.550781 C 197.667969 165.667969 202.023438 165.847656 203.101562 165.886719 C 202.699219 163.460938 202.382812 160.914062 202.15625 158.484375 C 201.835938 158.457031 201.855469 158.460938 201.167969 158.4375 C 198.382812 158.351562 180.96875 157.46875 178.496094 159.0625 C 177.878906 159.460938 175.871094 163.316406 175.148438 164.738281 Z M 214.140625 166.316406 C 214.238281 166.296875 214.347656 166.273438 214.457031 166.257812 L 215.28125 164.871094 L 213.023438 160.707031 C 211.25 159.5625 205.386719 158.796875 204.628906 158.640625 L 204.644531 158.761719 L 205.492188 166.511719 L 214.140625 166.316406 " fill-opacity="1" fill-rule="evenodd"/></g><path fill="#ffffff" d="M 181.816406 175.425781 C 183.878906 175.425781 185.550781 177.4375 185.550781 179.914062 C 185.550781 182.382812 183.878906 184.394531 181.816406 184.394531 C 179.75 184.394531 178.078125 182.382812 178.078125 179.914062 C 178.078125 177.4375 179.75 175.425781 181.816406 175.425781 Z M 188.820312 177.347656 C 188.820312 176.921875 188.808594 176.605469 188.800781 176.332031 C 188.09375 176.351562 187.445312 176.316406 187.160156 176.378906 C 186.9375 178.210938 186.851562 180.398438 186.945312 182.246094 C 186.96875 182.667969 186.980469 183.089844 186.992188 183.511719 C 187.390625 183.578125 188.425781 183.734375 189.023438 183.660156 C 188.753906 182.230469 188.820312 178.722656 188.820312 177.347656 Z M 191.175781 176.429688 L 191.117188 177.039062 C 190.886719 179.265625 191.164062 182.042969 189.839844 183.839844 C 189.332031 184.53125 186.757812 184.3125 186.503906 183.972656 C 186.273438 183.667969 186.347656 182.085938 186.339844 181.695312 C 186.335938 180.921875 186.574219 176.269531 186.894531 176.050781 C 186.992188 175.980469 187.878906 176.003906 188.796875 176.015625 C 188.84375 172.414062 190.277344 170.882812 193.578125 169.664062 C 195.367188 169.003906 201.105469 168.21875 205.71875 168.007812 L 224.917969 167.117188 C 222.09375 167.574219 208.386719 168.261719 204.714844 168.792969 C 201.058594 169.316406 196.789062 170.269531 193.566406 171.332031 C 190.988281 172.179688 190.089844 173.34375 189.839844 176.027344 C 190.242188 176.027344 190.578125 176.019531 190.769531 175.996094 C 190.511719 176.132812 190.183594 176.210938 189.824219 176.265625 C 189.8125 176.535156 189.8125 176.859375 189.777344 177.382812 C 189.679688 178.734375 189.503906 182.230469 189.148438 183.636719 C 189.277344 183.609375 189.375 183.570312 189.429688 183.503906 C 190.878906 181.796875 190.386719 178.6875 191.175781 176.429688 Z M 192.828125 166.621094 C 191.90625 166.886719 190.925781 167.140625 190.152344 167.367188 C 187.492188 168.152344 184.785156 169 182.140625 169.84375 C 180.460938 170.375 176.359375 171.679688 175.308594 172.789062 C 175.28125 172.816406 175.230469 172.792969 175.199219 172.769531 C 175.214844 172.757812 175.246094 172.753906 175.261719 172.746094 C 176.597656 171.050781 180.636719 169.734375 182.703125 169.003906 C 184.605469 168.339844 189.238281 167 192.300781 166.382812 L 192.117188 166.285156 C 192.558594 166.484375 192.828125 166.621094 192.828125 166.621094 Z M 190.472656 165.582031 C 190.277344 165.527344 190.0625 165.488281 189.8125 165.449219 C 189.734375 165.429688 189.644531 165.425781 189.542969 165.414062 C 188.550781 165.582031 186.121094 166.25 184.988281 166.613281 C 182.25 167.488281 179.503906 168.507812 177.054688 170.042969 C 176.671875 170.289062 176.996094 170.121094 176.597656 170.3125 C 177.433594 169.132812 180.515625 167.589844 181.894531 167.007812 C 183.566406 166.296875 185.324219 165.824219 187.722656 165.199219 C 187.269531 165.199219 186.828125 165.199219 186.394531 165.199219 C 186.394531 165.199219 189.179688 165.066406 190.472656 165.582031 Z M 176.128906 165.707031 C 175.894531 165.742188 175.664062 165.777344 175.425781 165.816406 C 168.257812 166.996094 158.730469 169.136719 152.097656 172.148438 L 151.574219 172.371094 C 154.714844 170.015625 163.65625 167.453125 170.023438 166.03125 C 170.371094 165.984375 170.726562 165.945312 171.078125 165.90625 C 173.488281 165.632812 176.128906 165.707031 176.128906 165.707031 Z M 143.351562 173.238281 C 144.167969 173.144531 143.871094 173.164062 144.691406 173.132812 C 149.410156 172.960938 154.34375 173.054688 159.066406 173.121094 C 166.007812 173.222656 172.878906 173.527344 179.808594 173.757812 C 182.152344 173.832031 184.988281 173.816406 187.273438 174.070312 C 184.671875 174.351562 181.113281 174.261719 178.429688 174.25 C 171.9375 174.230469 165.535156 174.085938 159.046875 173.84375 C 154.273438 173.660156 149.460938 173.554688 144.691406 173.347656 C 143.855469 173.308594 144.179688 173.332031 143.351562 173.238281 Z M 149.699219 175.160156 C 149.699219 175.160156 149.832031 180.921875 149.855469 181.234375 C 149.878906 181.546875 152.113281 182.773438 152.113281 182.773438 L 155.84375 183.082031 L 170.738281 183.753906 L 175.140625 182.859375 L 176.082031 182.171875 L 176.621094 181.5 L 176.550781 175.582031 L 150.304688 174.675781 Z M 145.730469 174.289062 C 147.570312 174.289062 149.0625 176.222656 149.0625 178.613281 C 149.0625 181 147.570312 182.933594 145.730469 182.933594 C 143.882812 182.933594 142.394531 181 142.394531 178.613281 C 142.394531 176.222656 143.882812 174.289062 145.730469 174.289062 Z M 229.472656 169.796875 C 217.273438 172.292969 204.96875 173.355469 192.75 175.46875 C 200.570312 172.632812 221.710938 168.949219 229.472656 169.796875 " fill-opacity="1" fill-rule="evenodd"/><path fill="#141515" d="M 146.582031 180.292969 C 146.546875 180.191406 146.511719 180.0625 146.488281 179.925781 C 146.488281 179.832031 146.496094 179.726562 146.5 179.617188 C 146.210938 179.660156 145.871094 179.722656 145.527344 179.816406 C 144.660156 180.046875 144.140625 180.941406 144.140625 180.941406 C 144.140625 180.941406 143.953125 180.558594 143.839844 179.75 C 143.832031 179.761719 143.828125 179.773438 143.820312 179.78125 C 143.746094 179.417969 143.722656 178.984375 143.757812 178.539062 C 143.769531 178.261719 143.804688 178.042969 143.851562 177.875 C 143.949219 177.425781 144.109375 176.980469 144.34375 176.609375 C 144.714844 176.019531 145.339844 175.609375 145.949219 175.609375 C 146.007812 175.609375 146.070312 175.617188 146.132812 175.621094 C 145.878906 175.457031 145.597656 175.359375 145.273438 175.363281 C 142.671875 175.421875 142.621094 182.140625 145.273438 182.089844 C 146.078125 182.085938 146.648438 181.472656 146.972656 180.617188 C 146.796875 180.566406 146.648438 180.46875 146.582031 180.292969 Z M 145.914062 176.320312 C 145.289062 175.921875 144.570312 176.527344 144.214844 177.503906 C 144.371094 177.730469 144.707031 178.152344 145.191406 178.421875 C 145.539062 178.621094 146.101562 178.6875 146.554688 178.710938 C 146.605469 177.777344 146.570312 176.738281 145.914062 176.320312 Z M 145.273438 182.679688 C 141.210938 182.679688 141.210938 174.773438 145.273438 174.773438 C 146.136719 174.773438 146.914062 175.230469 147.476562 175.964844 C 149.128906 178.140625 148.3125 182.679688 145.273438 182.679688 " fill-opacity="1" fill-rule="evenodd"/><path fill="#141515" d="M 152.386719 182.183594 C 154.796875 182.707031 162.488281 183.179688 165.902344 183.378906 L 165.941406 183.535156 C 165.46875 183.523438 163.460938 183.625 162.75 183.621094 C 159.757812 183.597656 155.28125 183.695312 152.148438 183.03125 C 151.027344 182.792969 150.078125 182.101562 149.5 181.675781 C 149.128906 181.398438 148.921875 176.726562 149.003906 175.675781 C 149.085938 174.59375 149.507812 174.261719 151.046875 174.28125 C 155.878906 174.359375 160.679688 174.503906 165.511719 174.589844 C 171.109375 174.6875 177.292969 174.835938 177.421875 175.300781 C 177.628906 176.296875 177.671875 182.050781 176.882812 182.5625 C 176.476562 182.828125 174.242188 183.683594 173.75 183.800781 C 172.203125 184.164062 168.171875 183.855469 166.476562 183.421875 C 168.414062 183.140625 170.109375 183.289062 171.988281 183.164062 C 174 183.027344 175.890625 182.097656 176.265625 181.597656 C 176.5 180.003906 176.296875 177.804688 176.308594 176.175781 C 173.382812 175.800781 168.050781 175.800781 162.773438 175.75 C 161.789062 175.742188 149.960938 175.3125 149.953125 175.335938 C 149.699219 176.277344 150.15625 180.480469 150.199219 181.074219 L 152.386719 182.183594 " fill-opacity="1" fill-rule="evenodd"/><path fill="#141515" d="M 181.375 183.5 C 182.289062 183.492188 182.933594 182.859375 183.300781 181.972656 C 183.101562 181.917969 182.929688 181.816406 182.859375 181.640625 C 182.820312 181.53125 182.785156 181.398438 182.753906 181.257812 C 182.753906 181.160156 182.761719 181.050781 182.765625 180.933594 C 182.441406 180.980469 182.054688 181.042969 181.664062 181.140625 C 180.695312 181.378906 180.101562 182.304688 180.101562 182.304688 C 180.101562 182.304688 179.894531 181.917969 179.761719 181.078125 C 179.753906 181.085938 179.75 181.097656 179.742188 181.109375 C 179.65625 180.726562 179.625 180.277344 179.667969 179.816406 C 179.679688 179.527344 179.726562 179.300781 179.777344 179.128906 C 179.886719 178.660156 180.066406 178.203125 180.328125 177.816406 C 180.753906 177.203125 181.453125 176.777344 182.144531 176.777344 C 182.210938 176.777344 182.277344 176.785156 182.347656 176.796875 C 182.070312 176.617188 181.746094 176.519531 181.375 176.523438 C 178.441406 176.582031 178.386719 183.558594 181.375 183.5 Z M 182.105469 177.515625 C 181.398438 177.101562 180.589844 177.730469 180.183594 178.746094 C 180.363281 178.976562 180.746094 179.417969 181.285156 179.691406 C 181.679688 179.902344 182.3125 179.972656 182.832031 180 C 182.882812 179.023438 182.84375 177.945312 182.105469 177.515625 Z M 183.863281 177.148438 C 185.730469 179.40625 184.808594 184.109375 181.375 184.109375 C 176.800781 184.109375 176.800781 175.910156 181.375 175.910156 C 182.355469 175.910156 183.230469 176.386719 183.863281 177.148438 " fill-opacity="1" fill-rule="evenodd"/><path fill="#141515" d="M 169.582031 175.917969 C 169.582031 175.917969 169.546875 182.621094 169.882812 183.410156 C 170.214844 184.203125 171.242188 184.152344 171.242188 184.152344 C 170.996094 181 170.980469 178.296875 171.042969 175.144531 C 170.667969 175.265625 169.640625 175.351562 169.582031 175.917969 Z M 151.9375 175.519531 C 151.9375 175.519531 151.90625 182.074219 152.242188 182.839844 C 152.570312 183.613281 153.605469 183.5625 153.605469 183.5625 C 153.355469 180.480469 153.339844 177.835938 153.402344 174.761719 C 153.023438 174.878906 151.996094 174.957031 151.9375 175.519531 Z M 155.066406 175.535156 C 155.066406 175.535156 155.03125 182.242188 155.367188 183.027344 C 155.707031 183.816406 156.734375 183.765625 156.734375 183.765625 C 156.488281 180.613281 156.464844 177.910156 156.53125 174.761719 C 156.152344 174.878906 155.132812 174.964844 155.066406 175.535156 Z M 158.335938 175.800781 C 158.335938 175.800781 158.300781 182.503906 158.636719 183.289062 C 158.96875 184.082031 160 184.03125 160 184.03125 C 159.75 180.878906 159.734375 178.175781 159.796875 175.027344 C 159.417969 175.144531 158.394531 175.230469 158.328125 175.800781 Z M 162.066406 175.945312 C 162.066406 175.945312 162.03125 182.648438 162.367188 183.433594 C 162.703125 184.226562 163.730469 184.175781 163.730469 184.175781 C 163.488281 181.023438 163.464844 178.320312 163.527344 175.171875 C 163.152344 175.289062 162.128906 175.375 162.066406 175.945312 Z M 165.640625 176.039062 C 165.640625 176.039062 165.613281 182.75 165.941406 183.535156 C 166.28125 184.324219 167.304688 184.273438 167.304688 184.273438 C 167.0625 181.113281 167.046875 178.410156 167.109375 175.265625 C 166.730469 175.386719 165.703125 175.472656 165.640625 176.039062 Z M 173.15625 175.945312 C 173.15625 175.945312 173.121094 182.648438 173.457031 183.433594 C 173.792969 184.226562 174.820312 184.175781 174.820312 184.175781 C 174.578125 181.023438 174.554688 178.320312 174.617188 175.171875 C 174.242188 175.289062 173.21875 175.375 173.15625 175.945312 " fill-opacity="1" fill-rule="evenodd"/><path fill="#141515" d="M 157.121094 191.3125 C 157.121094 191.484375 157.644531 194.089844 159.832031 194.46875 C 162.019531 194.84375 162.828125 194.199219 163.683594 193.441406 C 164.542969 192.6875 164.703125 191.398438 164.703125 191.398438 L 157.121094 191.3125 " fill-opacity="1" fill-rule="evenodd"/><path fill="#141515" d="M 137.890625 182.742188 C 137.773438 182.65625 138.535156 181.628906 138.535156 181.628906 L 141.019531 181.210938 L 141.800781 183.609375 L 140.117188 183.742188 L 139.4375 183.078125 L 137.890625 182.742188 " fill-opacity="1" fill-rule="evenodd"/><path fill="#141515" d="M 225.1875 176.773438 C 225.644531 176.773438 225.972656 178.480469 225.90625 180.589844 C 225.851562 182.695312 225.425781 184.398438 224.96875 184.398438 C 224.507812 184.398438 224.183594 182.695312 224.246094 180.589844 C 224.308594 178.480469 224.730469 176.773438 225.1875 176.773438 Z M 198.726562 179.539062 C 199.566406 179.539062 200.160156 182.460938 200.046875 186.066406 C 199.9375 189.675781 199.167969 192.605469 198.324219 192.605469 C 197.484375 192.605469 196.890625 189.675781 197 186.066406 C 197.113281 182.460938 197.882812 179.539062 198.726562 179.539062 " fill-opacity="1" fill-rule="evenodd"/><path fill="#ffffff" d="M 206.265625 175.566406 C 206.265625 175.566406 206.558594 176.109375 206.660156 176.945312 C 206.757812 177.789062 206.515625 179.558594 206.515625 179.558594 C 206.515625 179.558594 213.78125 177.8125 217.082031 177.191406 C 220.378906 176.574219 221.457031 176.5 221.621094 176.5 C 221.78125 176.5 222.460938 173.6875 222.710938 173.167969 C 222.960938 172.648438 223.277344 172.082031 223.277344 172.082031 L 206.265625 175.566406 " fill-opacity="1" fill-rule="evenodd"/><path stroke-linecap="butt" transform="matrix(0.0215152, 0, 0, -0.0214075, 137.025596, 198.541144)" fill="none" stroke-linejoin="miter" d="M 3218.190424 1073.210769 C 3218.190424 1073.210769 3231.807247 1047.847262 3236.527746 1008.79841 C 3241.066687 969.384616 3229.810113 886.72513 3229.810113 886.72513 C 3229.810113 886.72513 3567.507324 968.289788 3720.923529 997.30272 C 3874.158177 1026.133181 3924.268086 1029.600135 3931.893507 1029.600135 C 3939.33737 1029.600135 3970.928399 1160.979451 3982.548088 1185.24813 C 3994.167777 1209.516809 4008.873946 1235.975143 4008.873946 1235.975143 Z M 3218.190424 1073.210769 " stroke="#141515" stroke-width="5.669" stroke-opacity="1" stroke-miterlimit="10"/><path fill="#ffffff" d="M 204.214844 186.023438 C 204.214844 186.023438 207.210938 185.894531 210.222656 185.128906 C 213.226562 184.367188 217.359375 183.105469 217.359375 183.105469 C 217.359375 183.105469 212.601562 185.371094 208.410156 186.222656 C 204.222656 187.085938 203.601562 187.21875 203.601562 187.21875 L 204.214844 186.023438 " fill-opacity="1" fill-rule="evenodd"/><g fill="#141515" fill-opacity="1"><g transform="translate(103.762741, 243.530214)"><g><path d="M 5.886719 8.832031 C 9.8125 8.832031 12.757812 6.929688 16.132812 5.886719 C 15.945312 5.644531 15.886719 5.398438 15.886719 5.089844 C 15.886719 4.230469 16.558594 3.558594 17.417969 3.558594 C 18.277344 3.558594 19.015625 4.230469 19.015625 5.089844 L 19.015625 5.273438 C 20.425781 5.089844 21.957031 5.273438 23.183594 5.765625 L 24.042969 4.355469 C 21.589844 3.066406 21.039062 -0.492188 21.898438 -7.175781 C 22.753906 -14.292969 23.550781 -21.40625 24.410156 -28.460938 L 24.964844 -28.460938 C 23.921875 -16.5 34.960938 -10.671875 33.980469 -1.347656 L 34.714844 -1.289062 L 45.082031 -27.234375 L 47.410156 -3.558594 C 47.902344 1.472656 47.226562 4.109375 45.082031 4.90625 L 45.082031 5.089844 L 57.65625 5.089844 L 57.65625 4.90625 C 55.386719 4.109375 54.097656 1.472656 53.605469 -3.558594 L 50.785156 -32.015625 C 50.664062 -33.367188 50.601562 -34.46875 50.601562 -35.511719 C 50.601562 -38.335938 51.152344 -39.929688 52.75 -40.480469 L 52.75 -40.664062 L 41.21875 -40.664062 L 41.21875 -40.480469 C 42.566406 -39.867188 43.058594 -38.640625 43.058594 -37.109375 C 43.058594 -34.839844 42.015625 -32.015625 41.21875 -30.054688 L 35.023438 -14.535156 C 34.960938 -24.78125 26.804688 -28.089844 26.804688 -36.003906 C 26.804688 -38.765625 27.90625 -41.21875 30.359375 -42.074219 L 30.300781 -42.199219 C 28.582031 -42.566406 26.558594 -42.6875 24.410156 -42.6875 C 8.464844 -42.6875 1.960938 -34.46875 1.960938 -28.949219 C 1.960938 -26.191406 3.679688 -24.042969 6.683594 -24.042969 C 9.566406 -24.042969 12.820312 -26.3125 13.617188 -30.851562 C 12.574219 -28.890625 9.445312 -28.890625 9.445312 -31.527344 C 9.445312 -34.960938 15.089844 -41.402344 25.699219 -40.789062 C 24.164062 -37.535156 20.792969 -35.082031 17.234375 -34.777344 L 17.171875 -34.652344 C 18.890625 -33.980469 19.6875 -32.753906 18.890625 -26.3125 L 16.316406 -5.214844 C 15.457031 2.023438 11.777344 6.441406 6.5625 6.441406 C 6.132812 6.441406 5.644531 6.441406 5.152344 6.257812 C 5.519531 5.828125 5.644531 5.335938 5.644531 4.84375 C 5.644531 3.433594 4.476562 2.699219 3.375 2.699219 C 2.148438 2.699219 0.921875 3.496094 0.921875 5.214844 C 0.921875 7.359375 2.882812 8.832031 5.886719 8.832031 Z M 5.886719 8.832031 "/></g></g></g><g fill="#141515" fill-opacity="1"><g transform="translate(162.511886, 243.530214)"><g><path d="M 14.046875 0.613281 C 20.117188 0.613281 24.902344 -2.761719 26.191406 -7.851562 C 25.207031 -8.339844 24.964844 -9.507812 24.902344 -10.550781 L 24.351562 -28.335938 C 24.289062 -30.542969 24.410156 -33.917969 26.988281 -34.777344 L 26.988281 -34.960938 L 16.929688 -34.960938 L 16.929688 -34.777344 C 19.503906 -33.917969 19.503906 -30.542969 19.566406 -28.335938 L 20.117188 -9.9375 C 20.242188 -5.703125 18.03125 -3.066406 14.351562 -3.066406 C 10.671875 -3.066406 8.527344 -5.765625 8.648438 -9.996094 L 9.199219 -28.335938 C 9.261719 -30.542969 9.261719 -33.917969 11.835938 -34.777344 L 11.835938 -34.960938 L 1.042969 -34.960938 L 1.042969 -34.777344 C 3.617188 -33.917969 3.742188 -30.542969 3.679688 -28.335938 L 3.128906 -10.855469 C 3.066406 -9.753906 2.945312 -8.339844 1.839844 -7.851562 C 3.128906 -2.820312 7.972656 0.613281 14.046875 0.613281 Z M 14.046875 0.613281 "/></g></g></g><g fill="#141515" fill-opacity="1"><g transform="translate(192.377313, 243.530214)"><g><path d="M 11.46875 0.550781 C 17.113281 0.550781 22.570312 -2.761719 22.570312 -9.628906 C 22.570312 -20.363281 7.359375 -20.300781 7.359375 -27.660156 C 7.359375 -30.484375 9.445312 -31.894531 11.898438 -31.894531 C 15.148438 -31.894531 18.339844 -29.378906 19.628906 -25.882812 L 19.871094 -25.945312 L 19.566406 -34.410156 C 19.382812 -34.164062 19.136719 -34.101562 18.828125 -34.101562 C 17.480469 -34.101562 15.089844 -35.511719 11.46875 -35.511719 C 5.765625 -35.511719 1.902344 -31.957031 1.902344 -26.742188 C 1.902344 -16.316406 17.171875 -16.4375 17.171875 -8.464844 C 17.171875 -5.273438 14.84375 -3.558594 12.082031 -3.558594 C 8.527344 -3.558594 4.230469 -6.378906 3.558594 -12.390625 L 3.375 -12.390625 L 1.105469 -4.109375 C 3.558594 -0.980469 7.542969 0.550781 11.46875 0.550781 Z M 11.46875 0.550781 "/></g></g></g><g fill="#141515" fill-opacity="1"><g transform="translate(217.643428, 243.530214)"><g><path d="M 0.859375 -0.183594 L 0.859375 0 L 19.566406 0 C 20.300781 0 21.097656 0.308594 21.34375 0.675781 L 23 -8.339844 L 22.753906 -8.402344 C 21.589844 -5.519531 18.644531 -3.679688 15.210938 -3.679688 L 9.015625 -3.679688 L 9.015625 -20.667969 C 9.445312 -21.097656 9.996094 -21.34375 10.671875 -21.34375 C 12.878906 -21.34375 14.71875 -19.628906 16.804688 -19.628906 C 19.382812 -19.628906 21.40625 -22.265625 21.957031 -24.59375 L 21.773438 -24.65625 C 21.285156 -23.859375 20.484375 -23.492188 19.503906 -23.492188 C 17.480469 -23.492188 15.578125 -24.964844 13.371094 -24.964844 C 11.53125 -24.964844 9.996094 -23.921875 9.140625 -22.265625 L 9.015625 -22.265625 L 9.015625 -31.464844 L 15.519531 -31.464844 C 18.09375 -31.464844 19.257812 -30.605469 19.074219 -28.890625 L 19.257812 -28.828125 L 22.511719 -35.453125 C 22.140625 -35.082031 20.855469 -34.960938 19.996094 -34.960938 L 0.859375 -34.960938 L 0.859375 -34.777344 C 2.820312 -34.101562 3.496094 -32.324219 3.496094 -27.722656 L 3.496094 -7.238281 C 3.496094 -2.636719 2.820312 -0.859375 0.859375 -0.183594 Z M 0.859375 -0.183594 "/></g></g></g><g fill="#141515" fill-opacity="1"><g transform="translate(243.216165, 243.530214)"><g><path d="M 14.046875 0.613281 C 20.117188 0.613281 24.902344 -2.761719 26.191406 -7.851562 C 25.207031 -8.339844 24.964844 -9.507812 24.902344 -10.550781 L 24.351562 -28.335938 C 24.289062 -30.542969 24.410156 -33.917969 26.988281 -34.777344 L 26.988281 -34.960938 L 16.929688 -34.960938 L 16.929688 -34.777344 C 19.503906 -33.917969 19.503906 -30.542969 19.566406 -28.335938 L 20.117188 -9.9375 C 20.242188 -5.703125 18.03125 -3.066406 14.351562 -3.066406 C 10.671875 -3.066406 8.527344 -5.765625 8.648438 -9.996094 L 9.199219 -28.335938 C 9.261719 -30.542969 9.261719 -33.917969 11.835938 -34.777344 L 11.835938 -34.960938 L 1.042969 -34.960938 L 1.042969 -34.777344 C 3.617188 -33.917969 3.742188 -30.542969 3.679688 -28.335938 L 3.128906 -10.855469 C 3.066406 -9.753906 2.945312 -8.339844 1.839844 -7.851562 C 3.128906 -2.820312 7.972656 0.613281 14.046875 0.613281 Z M 14.046875 0.613281 "/></g></g></g><path stroke-linecap="butt" transform="matrix(2.968689, 0, 0, 2.813187, 106.659768, 258.884601)" fill="none" stroke-linejoin="miter" d="M 0.000130817 -0.000635898 L 10.109548 -0.000635898 " stroke="#141515" stroke-width="1" stroke-opacity="1" stroke-miterlimit="4"/><path stroke-linecap="butt" transform="matrix(2.968689, 0, 0, 2.813187, 240.792147, 258.884601)" fill="none" stroke-linejoin="miter" d="M 0.000276776 -0.000635898 L 10.109693 -0.000635898 " stroke="#141515" stroke-width="1" stroke-opacity="1" stroke-miterlimit="4"/><g fill="#141515" fill-opacity="1"><g transform="translate(171.121633, 262.594027)"><g><path d="M 5.601562 0.167969 C 7.535156 0.167969 8.824219 -0.257812 9.953125 -1.078125 C 9.882812 -1.476562 9.78125 -2.035156 9.84375 -2.625 C 8.59375 -1.449219 7.207031 -1.039062 5.789062 -1.039062 C 3.394531 -1.039062 2.195312 -2.136719 2.195312 -3.753906 C 2.195312 -5.46875 3.613281 -6.4375 5.851562 -6.429688 C 6.847656 -6.417969 8.234375 -6.179688 9.84375 -5.210938 C 9.773438 -5.789062 9.773438 -6.21875 9.84375 -6.796875 C 8.246094 -7.457031 6.917969 -7.625 5.761719 -7.625 C 2.515625 -7.625 0.460938 -6.277344 0.460938 -3.753906 C 0.460938 -1.335938 2.316406 0.167969 5.601562 0.167969 Z M 5.601562 0.167969 "/></g></g></g><g fill="#141515" fill-opacity="1"><g transform="translate(184.139295, 262.594027)"><g><path d="M 9.734375 0 C 8.523438 -2.476562 7.386719 -4.960938 6.339844 -7.4375 C 5.621094 -7.308594 4.234375 -7.347656 3.515625 -7.4375 C 2.464844 -4.960938 1.347656 -2.476562 0.140625 0 L 2.097656 0 C 2.296875 -0.480469 2.503906 -1.019531 2.734375 -1.566406 C 4.03125 -1.597656 5.808594 -1.597656 7.097656 -1.558594 C 7.308594 -1.027344 7.496094 -0.5 7.6875 0 Z M 3.15625 -2.585938 C 3.8125 -4.183594 4.480469 -5.761719 4.890625 -6.519531 C 5.53125 -5.339844 6.140625 -3.964844 6.6875 -2.585938 C 5.621094 -2.554688 4.222656 -2.554688 3.15625 -2.585938 Z M 3.15625 -2.585938 "/></g></g></g><g fill="#141515" fill-opacity="1"><g transform="translate(196.538656, 262.594027)"><g><path d="M 0.859375 0 L 2.734375 0 C 2.675781 -0.777344 2.644531 -1.449219 2.625 -2.804688 C 3.042969 -2.804688 3.445312 -2.796875 3.921875 -2.765625 C 5.980469 -2.617188 6.917969 -1.875 7.257812 0 L 9.625 0 C 9.113281 -1.097656 8.007812 -2.605469 6.03125 -2.945312 L 6.03125 -3.074219 C 7.058594 -3.074219 9.3125 -3.394531 9.3125 -5.289062 C 9.3125 -6.777344 8.007812 -7.46875 5.222656 -7.46875 C 3.625 -7.46875 2.574219 -7.40625 0.859375 -7.4375 C 0.976562 -5.582031 0.976562 -1.867188 0.859375 0 Z M 2.617188 -3.84375 C 2.617188 -4.730469 2.625 -5.539062 2.644531 -6.308594 C 3.246094 -6.308594 4.210938 -6.339844 5.171875 -6.339844 C 6.589844 -6.339844 7.488281 -6.019531 7.488281 -5.109375 C 7.488281 -4.132812 6.570312 -3.773438 4.871094 -3.773438 C 4.101562 -3.773438 3.304688 -3.824219 2.617188 -3.84375 Z M 2.617188 -3.84375 "/></g></g></g></svg>